<?xml version="1.0" encoding="UTF-8" standalone="no"?>
<!-- Created with Inkscape (http://www.inkscape.org/) -->

<svg
   xmlns:dc="http://purl.org/dc/elements/1.1/"
   xmlns:cc="http://creativecommons.org/ns#"
   xmlns:rdf="http://www.w3.org/1999/02/22-rdf-syntax-ns#"
   xmlns:svg="http://www.w3.org/2000/svg"
   xmlns="http://www.w3.org/2000/svg"
   xmlns:sodipodi="http://sodipodi.sourceforge.net/DTD/sodipodi-0.dtd"
   xmlns:inkscape="http://www.inkscape.org/namespaces/inkscape"
   width="744.09448819"
   height="1052.3622047"
   id="svg3249"
   version="1.1"
   inkscape:version="0.48.3.1 r9886"
   sodipodi:docname="New document 7">
  <defs
     id="defs3251" />
  <sodipodi:namedview
     id="base"
     pagecolor="#ffffff"
     bordercolor="#666666"
     borderopacity="1.0"
     inkscape:pageopacity="0.0"
     inkscape:pageshadow="2"
     inkscape:zoom="2.8"
     inkscape:cx="349.39883"
     inkscape:cy="507.46885"
     inkscape:document-units="px"
     inkscape:current-layer="layer1"
     showgrid="false"
     inkscape:window-width="511"
     inkscape:window-height="434"
     inkscape:window-x="3"
     inkscape:window-y="123"
     inkscape:window-maximized="0" />
  <metadata
     id="metadata3254">
    <rdf:RDF>
      <cc:Work
         rdf:about="">
        <dc:format>image/svg+xml</dc:format>
        <dc:type
           rdf:resource="http://purl.org/dc/dcmitype/StillImage" />
        <dc:title></dc:title>
      </cc:Work>
    </rdf:RDF>
  </metadata>
  <g
     inkscape:label="Layer 1"
     inkscape:groupmode="layer"
     id="layer1">
    <g
       transform="translate(319.97203,482.72631)"
       id="g1681">
      <g
         id="g1463">
        <g
           id="g1418">
          <path
             style="fill:#ffffff;stroke:#000000;stroke-width:0.125"
             inkscape:connector-curvature="0"
             id="path1270"
             d="M 83.508,88.424 C 101.929,75.04 95.797,65.17 90.799,62.945 85.771,60.708 80.378,59.081 75.166,57.152 56.764,49.765 54.109,52.897 56.057,71.036 c 0.225,5.552 0.094,11.191 0.668,16.665 0.572,5.44 8.852,13.749 26.783,0.723 z" />
          <g
             id="g1411">
            <g
               id="g1408">
              <path
                 inkscape:connector-curvature="0"
                 id="path1378"
                 d="m 70.126,74.086 c 3.175,0.014 3.036,0.2 3.682,-2.676 0.713,2.271 1.425,4.542 2.138,6.814 -1.94,-1.378 -3.881,-2.758 -5.82,-4.138 z" />
              <path
                 style="fill:#3c4919"
                 inkscape:connector-curvature="0"
                 id="path1380"
                 d="m 72.308,70.022 c 0.61,0.839 0.424,2.013 -0.416,2.623 -0.838,0.608 -2.014,0.423 -2.622,-0.416 -0.61,-0.838 -0.715,-3.006 -0.853,-4.368 1.099,0.578 3.282,1.323 3.891,2.161 z" />
            </g>
            <g
               id="g1403">
              <path
                 inkscape:connector-curvature="0"
                 id="path1398"
                 d="m 91.735,65.205 c 2.191,2.581 4.234,6.342 -0.363,11.688 -2.167,2.685 -6.614,3.815 -11.098,7.289 -4.688,3.19 -7.14,7.07 -10.362,8.302 -6.506,2.721 -9.451,-0.384 -11.068,-3.043 1.297,2.217 4.241,5.322 10.748,2.602 3.223,-1.232 5.674,-5.11 10.361,-8.302 4.484,-3.473 8.932,-4.605 11.098,-7.289 4.598,-5.348 2.554,-9.107 0.684,-11.247 z" />
              <path
                 style="fill:#3a6673"
                 inkscape:connector-curvature="0"
                 id="path1402"
                 d="m 91.129,64.37 c 2.19,2.58 4.234,6.341 -0.364,11.688 -2.167,2.685 -6.614,3.816 -11.097,7.289 -4.69,3.191 -7.141,7.07 -10.363,8.302 -6.506,2.721 -9.45,-0.384 -11.066,-3.044 1.296,2.218 4.041,4.694 10.548,1.973 3.222,-1.23 4.466,-6.297 9.155,-9.488 4.482,-3.473 9.855,-3.213 12.021,-5.897 4.599,-5.348 3.035,-8.684 1.166,-10.823 z" />
            </g>
          </g>
        </g>
        <g
           id="g1427"
           transform="matrix(0.309017,0.951056,-0.951056,0.309017,469.9921,-266.9364)">
          <path
             style="fill:#ffffff;stroke:#000000;stroke-width:0.125"
             inkscape:connector-curvature="0"
             id="path1428"
             d="m 201.606,529.854 c 18.421,-13.384 12.287,-23.254 7.29,-25.479 -5.028,-2.239 -10.421,-3.865 -15.632,-5.794 -18.403,-7.386 -21.057,-4.254 -19.11,13.884 0.224,5.552 0.094,11.191 0.669,16.665 0.572,5.441 8.852,13.752 26.783,0.724 z" />
          <g
             id="g1429">
            <g
               id="g1430">
              <path
                 inkscape:connector-curvature="0"
                 id="path1431"
                 d="m 188.223,515.515 c 3.175,0.014 3.037,0.201 3.683,-2.675 0.712,2.272 1.426,4.543 2.138,6.815 -1.941,-1.38 -3.881,-2.76 -5.821,-4.14 z" />
              <path
                 style="fill:#3c4919"
                 inkscape:connector-curvature="0"
                 id="path1432"
                 d="m 190.405,511.452 c 0.61,0.839 0.423,2.014 -0.415,2.623 -0.84,0.609 -2.015,0.424 -2.624,-0.415 -0.61,-0.839 -0.714,-3.007 -0.853,-4.368 1.099,0.577 3.283,1.321 3.892,2.16 z" />
            </g>
            <g
               id="g1433">
              <path
                 inkscape:connector-curvature="0"
                 id="path1434"
                 d="m 209.835,506.635 c 2.189,2.58 4.232,6.34 -0.366,11.688 -2.166,2.684 -6.613,3.817 -11.097,7.289 -4.688,3.191 -7.139,7.071 -10.363,8.302 -6.506,2.721 -9.45,-0.384 -11.067,-3.043 1.297,2.218 4.239,5.323 10.747,2.602 3.222,-1.231 5.673,-5.11 10.362,-8.302 4.484,-3.473 8.93,-4.605 11.099,-7.289 4.598,-5.348 2.553,-9.108 0.685,-11.247 z" />
              <path
                 style="fill:#3a6673"
                 inkscape:connector-curvature="0"
                 id="path1435"
                 d="m 209.227,505.8 c 2.189,2.58 4.233,6.341 -0.365,11.688 -2.167,2.684 -6.613,3.816 -11.097,7.289 -4.688,3.191 -7.14,7.07 -10.362,8.302 -6.508,2.72 -9.451,-0.385 -11.069,-3.045 1.297,2.218 4.042,4.695 10.548,1.974 3.222,-1.232 4.467,-6.297 9.156,-9.489 4.483,-3.473 9.856,-3.213 12.023,-5.898 4.599,-5.346 3.035,-8.683 1.166,-10.821 z" />
            </g>
          </g>
        </g>
        <g
           id="g1436"
           transform="matrix(-0.809017,0.587785,-0.587785,-0.809017,865.9057,96.66981)">
          <path
             style="fill:#ffffff;stroke:#000000;stroke-width:0.125"
             inkscape:connector-curvature="0"
             id="path1437"
             d="m 657.186,551.714 c 18.422,-13.385 12.288,-23.254 7.291,-25.48 -5.029,-2.238 -10.421,-3.864 -15.633,-5.792 -18.402,-7.386 -21.057,-4.255 -19.109,13.883 0.224,5.552 0.094,11.192 0.668,16.666 0.572,5.44 8.852,13.75 26.783,0.723 z" />
          <g
             id="g1438">
            <g
               id="g1439">
              <path
                 inkscape:connector-curvature="0"
                 id="path1440"
                 d="m 643.803,537.375 c 3.176,0.014 3.037,0.201 3.682,-2.675 0.713,2.271 1.425,4.543 2.138,6.814 -1.94,-1.379 -3.879,-2.759 -5.82,-4.139 z" />
              <path
                 style="fill:#3c4919"
                 inkscape:connector-curvature="0"
                 id="path1441"
                 d="m 645.986,533.312 c 0.609,0.839 0.423,2.014 -0.416,2.624 -0.838,0.609 -2.014,0.423 -2.623,-0.416 -0.61,-0.839 -0.715,-3.006 -0.853,-4.368 1.1,0.577 3.282,1.321 3.892,2.16 z" />
            </g>
            <g
               id="g1442">
              <path
                 inkscape:connector-curvature="0"
                 id="path1443"
                 d="m 665.414,528.496 c 2.189,2.581 4.234,6.34 -0.365,11.687 -2.167,2.685 -6.614,3.816 -11.097,7.289 -4.688,3.191 -7.14,7.071 -10.362,8.302 -6.507,2.721 -9.451,-0.384 -11.067,-3.044 1.295,2.218 4.24,5.324 10.748,2.602 3.222,-1.231 5.672,-5.111 10.361,-8.302 4.484,-3.473 8.931,-4.605 11.098,-7.289 4.597,-5.347 2.553,-9.107 0.684,-11.245 z" />
              <path
                 style="fill:#3a6673"
                 inkscape:connector-curvature="0"
                 id="path1444"
                 d="m 664.808,527.66 c 2.189,2.581 4.233,6.34 -0.365,11.688 -2.167,2.684 -6.613,3.816 -11.097,7.289 -4.688,3.192 -7.14,7.07 -10.362,8.302 -6.506,2.721 -9.45,-0.385 -11.068,-3.043 1.297,2.217 4.042,4.694 10.549,1.973 3.222,-1.232 4.467,-6.298 9.156,-9.489 4.483,-3.473 9.855,-3.213 12.022,-5.898 4.597,-5.348 3.034,-8.683 1.165,-10.822 z" />
            </g>
          </g>
        </g>
        <g
           id="g1445"
           transform="matrix(-0.809017,-0.587785,0.587785,-0.809017,643.7921,588.5748)">
          <path
             style="fill:#ffffff;stroke:#000000;stroke-width:0.125"
             inkscape:connector-curvature="0"
             id="path1446"
             d="m 820.265,126.973 c 18.422,-13.384 12.289,-23.254 7.291,-25.48 -5.028,-2.239 -10.421,-3.865 -15.632,-5.793 -18.402,-7.387 -21.056,-4.254 -19.109,13.884 0.224,5.552 0.093,11.192 0.668,16.665 0.573,5.441 8.853,13.751 26.782,0.724 z" />
          <g
             id="g1447">
            <g
               id="g1448">
              <path
                 inkscape:connector-curvature="0"
                 id="path1449"
                 d="m 806.883,112.635 c 3.176,0.014 3.038,0.201 3.683,-2.676 0.712,2.272 1.425,4.543 2.138,6.815 -1.941,-1.38 -3.881,-2.76 -5.821,-4.139 z" />
              <path
                 style="fill:#3c4919"
                 inkscape:connector-curvature="0"
                 id="path1450"
                 d="m 809.066,108.571 c 0.609,0.839 0.424,2.014 -0.415,2.623 -0.838,0.609 -2.014,0.423 -2.623,-0.416 -0.609,-0.839 -0.714,-3.007 -0.852,-4.368 1.098,0.578 3.28,1.323 3.89,2.161 z" />
            </g>
            <g
               id="g1451">
              <path
                 inkscape:connector-curvature="0"
                 id="path1452"
                 d="m 828.495,103.755 c 2.189,2.58 4.233,6.34 -0.365,11.687 -2.167,2.685 -6.613,3.817 -11.098,7.289 -4.687,3.191 -7.14,7.072 -10.362,8.302 -6.506,2.721 -9.451,-0.385 -11.068,-3.044 1.296,2.217 4.24,5.323 10.747,2.602 3.222,-1.23 5.674,-5.111 10.362,-8.302 4.484,-3.473 8.931,-4.604 11.098,-7.289 4.598,-5.347 2.555,-9.107 0.686,-11.245 z" />
              <path
                 style="fill:#3a6673"
                 inkscape:connector-curvature="0"
                 id="path1453"
                 d="m 827.888,102.919 c 2.19,2.58 4.233,6.341 -0.365,11.688 -2.167,2.684 -6.614,3.816 -11.098,7.289 -4.688,3.191 -7.14,7.071 -10.362,8.302 -6.507,2.721 -9.451,-0.385 -11.068,-3.044 1.296,2.218 4.042,4.694 10.547,1.974 3.223,-1.232 4.468,-6.298 9.156,-9.49 4.484,-3.472 9.856,-3.213 12.022,-5.897 4.6,-5.348 3.037,-8.683 1.168,-10.822 z" />
            </g>
          </g>
        </g>
        <g
           id="g1454"
           transform="matrix(0.309017,-0.951057,0.951057,0.309017,108.7295,528.2566)">
          <path
             style="fill:#ffffff;stroke:#000000;stroke-width:0.125"
             inkscape:connector-curvature="0"
             id="path1455"
             d="m 465.977,-160.399 c 18.421,-13.385 12.288,-23.255 7.29,-25.48 -5.027,-2.238 -10.421,-3.864 -15.632,-5.794 -18.403,-7.387 -21.058,-4.254 -19.109,13.884 0.223,5.553 0.093,11.193 0.669,16.666 0.57,5.441 8.851,13.751 26.782,0.724 z" />
          <g
             id="g1456">
            <g
               id="g1457">
              <path
                 inkscape:connector-curvature="0"
                 id="path1458"
                 d="m 452.594,-174.737 c 3.175,0.015 3.036,0.2 3.682,-2.676 0.712,2.272 1.425,4.543 2.138,6.815 -1.94,-1.382 -3.88,-2.76 -5.82,-4.139 z" />
              <path
                 style="fill:#3c4919"
                 inkscape:connector-curvature="0"
                 id="path1459"
                 d="m 454.776,-178.802 c 0.61,0.84 0.424,2.014 -0.415,2.623 -0.839,0.61 -2.014,0.424 -2.623,-0.415 -0.609,-0.838 -0.714,-3.005 -0.851,-4.368 1.097,0.577 3.28,1.322 3.889,2.16 z" />
            </g>
            <g
               id="g1460">
              <path
                 inkscape:connector-curvature="0"
                 id="path1461"
                 d="m 474.205,-183.618 c 2.189,2.581 4.233,6.34 -0.365,11.688 -2.167,2.684 -6.614,3.817 -11.098,7.289 -4.688,3.191 -7.139,7.07 -10.362,8.302 -6.506,2.721 -9.451,-0.384 -11.068,-3.044 1.297,2.218 4.241,5.325 10.747,2.603 3.222,-1.232 5.673,-5.111 10.362,-8.302 4.484,-3.475 8.931,-4.605 11.098,-7.289 4.599,-5.348 2.555,-9.108 0.686,-11.247 z" />
              <path
                 style="fill:#3a6673"
                 inkscape:connector-curvature="0"
                 id="path1462"
                 d="m 473.598,-184.452 c 2.19,2.579 4.234,6.34 -0.364,11.688 -2.167,2.684 -6.614,3.815 -11.097,7.289 -4.689,3.191 -7.14,7.07 -10.362,8.302 -6.507,2.721 -9.452,-0.384 -11.068,-3.044 1.296,2.218 4.041,4.694 10.547,1.973 3.222,-1.232 4.467,-6.298 9.155,-9.489 4.484,-3.473 9.856,-3.213 12.023,-5.897 4.598,-5.349 3.035,-8.684 1.166,-10.822 z" />
            </g>
          </g>
        </g>
      </g>
      <g
         id="g1509"
         transform="matrix(0.446511,-0.324409,0.324409,0.446511,171.4232,243.8542)">
        <g
           id="g1510">
          <path
             style="fill:#ffffff;stroke:#000000;stroke-width:0.125"
             inkscape:connector-curvature="0"
             id="path1511"
             d="m 65.115,-366.404 c 18.42,-13.384 12.288,-23.253 7.289,-25.479 -5.027,-2.238 -10.42,-3.864 -15.631,-5.792 -18.402,-7.387 -21.058,-4.256 -19.11,13.883 0.224,5.552 0.094,11.192 0.669,16.666 0.572,5.44 8.852,13.749 26.783,0.722 z" />
          <g
             id="g1512">
            <g
               id="g1513">
              <path
                 inkscape:connector-curvature="0"
                 id="path1514"
                 d="m 51.732,-380.742 c 3.176,0.015 3.036,0.201 3.683,-2.674 0.712,2.271 1.422,4.542 2.138,6.813 -1.939,-1.379 -3.882,-2.759 -5.821,-4.139 z" />
              <path
                 style="fill:#3c4919"
                 inkscape:connector-curvature="0"
                 id="path1515"
                 d="m 53.913,-384.806 c 0.61,0.84 0.425,2.016 -0.413,2.625 -0.84,0.608 -2.013,0.423 -2.624,-0.416 -0.611,-0.839 -0.714,-3.006 -0.851,-4.368 1.096,0.576 3.281,1.321 3.888,2.159 z" />
            </g>
            <g
               id="g1516">
              <path
                 inkscape:connector-curvature="0"
                 id="path1517"
                 d="m 73.344,-389.621 c 2.188,2.579 4.233,6.341 -0.366,11.687 -2.167,2.685 -6.614,3.817 -11.098,7.288 -4.688,3.192 -7.139,7.072 -10.362,8.304 -6.507,2.719 -9.45,-0.386 -11.067,-3.043 1.296,2.217 4.241,5.321 10.747,2.601 3.223,-1.23 5.673,-5.11 10.362,-8.302 4.481,-3.474 8.93,-4.605 11.097,-7.29 4.597,-5.347 2.555,-9.105 0.687,-11.245 z" />
              <path
                 style="fill:#3a6673"
                 inkscape:connector-curvature="0"
                 id="path1518"
                 d="m 72.737,-390.456 c 2.19,2.579 4.231,6.337 -0.364,11.687 -2.169,2.684 -6.615,3.816 -11.099,7.29 -4.688,3.19 -7.138,7.07 -10.361,8.3 -6.507,2.722 -9.453,-0.385 -11.067,-3.046 1.296,2.219 4.04,4.696 10.546,1.975 3.224,-1.231 4.467,-6.299 9.157,-9.49 4.483,-3.473 9.856,-3.213 12.022,-5.896 4.596,-5.346 3.035,-8.682 1.166,-10.82 z" />
            </g>
          </g>
        </g>
        <g
           id="g1519"
           transform="matrix(0.309017,0.951056,-0.951056,0.309017,469.9921,-266.9364)">
          <path
             style="fill:#ffffff;stroke:#000000;stroke-width:0.125"
             inkscape:connector-curvature="0"
             id="path1520"
             d="m -236.645,406.798 c 18.42,-13.383 12.287,-23.252 7.292,-25.479 -5.029,-2.241 -10.422,-3.866 -15.635,-5.794 -18.403,-7.386 -21.057,-4.254 -19.109,13.883 0.224,5.552 0.093,11.191 0.67,16.666 0.572,5.441 8.852,13.751 26.782,0.724 z" />
          <g
             id="g1521">
            <g
               id="g1522">
              <path
                 inkscape:connector-curvature="0"
                 id="path1523"
                 d="m -250.028,392.459 c 3.176,0.015 3.037,0.201 3.683,-2.676 0.712,2.274 1.424,4.543 2.136,6.818 -1.94,-1.383 -3.878,-2.761 -5.819,-4.142 z" />
              <path
                 style="fill:#3c4919"
                 inkscape:connector-curvature="0"
                 id="path1524"
                 d="m -247.844,388.397 c 0.608,0.837 0.422,2.014 -0.418,2.624 -0.836,0.607 -2.012,0.421 -2.621,-0.416 -0.61,-0.84 -0.716,-3.008 -0.855,-4.368 1.101,0.576 3.283,1.319 3.894,2.16 z" />
            </g>
            <g
               id="g1525">
              <path
                 inkscape:connector-curvature="0"
                 id="path1526"
                 d="m -228.416,383.581 c 2.189,2.58 4.234,6.339 -0.365,11.686 -2.166,2.685 -6.615,3.815 -11.1,7.29 -4.687,3.188 -7.137,7.071 -10.359,8.301 -6.506,2.722 -9.451,-0.384 -11.067,-3.044 1.295,2.217 4.24,5.324 10.746,2.601 3.222,-1.23 5.675,-5.109 10.359,-8.301 4.487,-3.472 8.934,-4.606 11.1,-7.29 4.6,-5.345 2.554,-9.105 0.686,-11.243 z" />
              <path
                 style="fill:#3a6673"
                 inkscape:connector-curvature="0"
                 id="path1527"
                 d="m -229.024,382.743 c 2.189,2.58 4.234,6.339 -0.363,11.689 -2.167,2.683 -6.614,3.817 -11.101,7.289 -4.684,3.191 -7.137,7.071 -10.358,8.302 -6.508,2.719 -9.453,-0.387 -11.068,-3.045 1.296,2.219 4.041,4.695 10.547,1.973 3.222,-1.23 4.467,-6.296 9.155,-9.488 4.485,-3.473 9.856,-3.213 12.023,-5.899 4.598,-5.345 3.035,-8.68 1.165,-10.821 z" />
            </g>
          </g>
        </g>
        <g
           id="g1528"
           transform="matrix(-0.809017,0.587785,-0.587785,-0.809017,865.9057,96.66981)">
          <path
             style="fill:#ffffff;stroke:#000000;stroke-width:0.125"
             inkscape:connector-curvature="0"
             id="path1529"
             d="m 404.726,930.489 c 18.42,-13.384 12.29,-23.254 7.291,-25.48 -5.029,-2.239 -10.422,-3.864 -15.635,-5.792 -18.403,-7.389 -21.055,-4.254 -19.109,13.883 0.225,5.552 0.094,11.192 0.67,16.665 0.573,5.441 8.852,13.751 26.783,0.724 z" />
          <g
             id="g1530">
            <g
               id="g1531">
              <path
                 inkscape:connector-curvature="0"
                 id="path1532"
                 d="m 391.344,916.149 c 3.176,0.015 3.038,0.202 3.681,-2.674 0.714,2.271 1.427,4.542 2.139,6.814 -1.941,-1.38 -3.88,-2.76 -5.82,-4.14 z" />
              <path
                 style="fill:#3c4919"
                 inkscape:connector-curvature="0"
                 id="path1533"
                 d="m 393.525,912.086 c 0.61,0.839 0.424,2.014 -0.416,2.625 -0.837,0.609 -2.014,0.422 -2.622,-0.416 -0.61,-0.84 -0.716,-3.006 -0.853,-4.368 1.099,0.577 3.281,1.321 3.891,2.159 z" />
            </g>
            <g
               id="g1534">
              <path
                 inkscape:connector-curvature="0"
                 id="path1535"
                 d="m 412.954,907.269 c 2.191,2.58 4.235,6.341 -0.366,11.688 -2.166,2.684 -6.613,3.817 -11.096,7.289 -4.688,3.192 -7.14,7.073 -10.362,8.302 -6.506,2.721 -9.451,-0.384 -11.068,-3.044 1.296,2.218 4.24,5.324 10.747,2.603 3.222,-1.231 5.673,-5.11 10.363,-8.303 4.483,-3.471 8.93,-4.604 11.096,-7.287 4.602,-5.348 2.556,-9.107 0.686,-11.248 z" />
              <path
                 style="fill:#3a6673"
                 inkscape:connector-curvature="0"
                 id="path1536"
                 d="m 412.348,906.434 c 2.189,2.581 4.233,6.34 -0.366,11.688 -2.168,2.685 -6.613,3.817 -11.097,7.289 -4.688,3.191 -7.139,7.069 -10.362,8.301 -6.507,2.723 -9.451,-0.385 -11.067,-3.044 1.296,2.218 4.041,4.695 10.548,1.973 3.222,-1.229 4.466,-6.297 9.156,-9.487 4.483,-3.473 9.854,-3.214 12.022,-5.897 4.599,-5.348 3.035,-8.685 1.166,-10.823 z" />
            </g>
          </g>
        </g>
        <g
           id="g1537"
           transform="matrix(-0.809017,-0.587785,0.587785,-0.809017,643.7921,588.5748)">
          <path
             style="fill:#ffffff;stroke:#000000;stroke-width:0.125"
             inkscape:connector-curvature="0"
             id="path1538"
             d="m 1102.488,484.125 c 18.421,-13.385 12.288,-23.255 7.29,-25.479 -5.028,-2.238 -10.42,-3.864 -15.632,-5.794 -18.404,-7.387 -21.055,-4.254 -19.109,13.884 0.223,5.553 0.092,11.192 0.669,16.666 0.57,5.44 8.85,13.75 26.782,0.723 z" />
          <g
             id="g1539">
            <g
               id="g1540">
              <path
                 inkscape:connector-curvature="0"
                 id="path1541"
                 d="m 1089.105,469.786 c 3.175,0.014 3.037,0.201 3.683,-2.675 0.712,2.271 1.424,4.542 2.137,6.815 -1.94,-1.38 -3.88,-2.761 -5.82,-4.14 z" />
              <path
                 style="fill:#3c4919"
                 inkscape:connector-curvature="0"
                 id="path1542"
                 d="m 1091.287,465.723 c 0.61,0.839 0.423,2.014 -0.415,2.624 -0.839,0.608 -2.014,0.422 -2.624,-0.417 -0.61,-0.838 -0.714,-3.006 -0.852,-4.367 1.1,0.576 3.283,1.321 3.891,2.16 z" />
            </g>
            <g
               id="g1543">
              <path
                 inkscape:connector-curvature="0"
                 id="path1544"
                 d="m 1110.715,460.907 c 2.191,2.58 4.234,6.34 -0.365,11.687 -2.167,2.684 -6.612,3.817 -11.097,7.29 -4.689,3.19 -7.14,7.071 -10.362,8.301 -6.506,2.721 -9.452,-0.385 -11.068,-3.043 1.297,2.218 4.241,5.323 10.748,2.602 3.22,-1.232 5.673,-5.111 10.362,-8.301 4.483,-3.473 8.93,-4.605 11.096,-7.29 4.6,-5.348 2.556,-9.108 0.686,-11.246 z" />
              <path
                 style="fill:#3a6673"
                 inkscape:connector-curvature="0"
                 id="path1545"
                 d="m 1110.109,460.071 c 2.19,2.58 4.233,6.34 -0.365,11.688 -2.167,2.683 -6.613,3.816 -11.098,7.289 -4.689,3.19 -7.139,7.07 -10.361,8.3 -6.507,2.722 -9.451,-0.384 -11.068,-3.042 1.295,2.217 4.041,4.694 10.547,1.973 3.224,-1.232 4.468,-6.298 9.156,-9.489 4.484,-3.472 9.856,-3.213 12.022,-5.897 4.599,-5.348 3.037,-8.683 1.167,-10.822 z" />
            </g>
          </g>
        </g>
        <g
           id="g1546"
           transform="matrix(0.309017,-0.951057,0.951057,0.309017,108.7295,528.2566)">
          <path
             style="fill:#ffffff;stroke:#000000;stroke-width:0.125"
             inkscape:connector-curvature="0"
             id="path1547"
             d="m 892.858,-318.443 c 18.421,-13.384 12.288,-23.256 7.291,-25.478 -5.027,-2.24 -10.421,-3.866 -15.633,-5.794 -18.402,-7.386 -21.056,-4.256 -19.109,13.884 0.223,5.554 0.093,11.191 0.667,16.667 0.572,5.44 8.854,13.747 26.784,0.721 z" />
          <g
             id="g1548">
            <g
               id="g1549">
              <path
                 inkscape:connector-curvature="0"
                 id="path1550"
                 d="m 879.476,-332.782 c 3.176,0.016 3.037,0.204 3.682,-2.674 0.713,2.271 1.425,4.543 2.137,6.815 -1.939,-1.38 -3.879,-2.76 -5.819,-4.141 z" />
              <path
                 style="fill:#3c4919"
                 inkscape:connector-curvature="0"
                 id="path1551"
                 d="m 881.658,-336.843 c 0.61,0.838 0.423,2.015 -0.415,2.622 -0.839,0.609 -2.015,0.424 -2.624,-0.413 -0.609,-0.84 -0.714,-3.008 -0.852,-4.37 1.099,0.579 3.281,1.323 3.891,2.161 z" />
            </g>
            <g
               id="g1552">
              <path
                 inkscape:connector-curvature="0"
                 id="path1553"
                 d="m 901.087,-341.659 c 2.19,2.579 4.234,6.339 -0.364,11.686 -2.168,2.685 -6.615,3.815 -11.099,7.29 -4.689,3.191 -7.138,7.068 -10.361,8.3 -6.506,2.721 -9.451,-0.384 -11.067,-3.043 1.295,2.218 4.24,5.323 10.747,2.603 3.222,-1.232 5.673,-5.111 10.362,-8.302 4.483,-3.472 8.93,-4.607 11.097,-7.289 4.598,-5.347 2.553,-9.107 0.685,-11.245 z" />
              <path
                 style="fill:#3a6673"
                 inkscape:connector-curvature="0"
                 id="path1554"
                 d="m 900.48,-342.496 c 2.189,2.583 4.234,6.339 -0.366,11.69 -2.167,2.684 -6.613,3.814 -11.098,7.289 -4.689,3.191 -7.139,7.07 -10.361,8.298 -6.508,2.725 -9.451,-0.383 -11.068,-3.042 1.297,2.217 4.041,4.695 10.547,1.974 3.223,-1.232 4.468,-6.299 9.156,-9.49 4.484,-3.473 9.856,-3.214 12.022,-5.897 4.6,-5.348 3.037,-8.682 1.168,-10.822 z" />
            </g>
          </g>
        </g>
      </g>
    </g>
  </g>
</svg>
